<svg width="35" height="35" viewBox="0 0 35 35" fill="none" xmlns="http://www.w3.org/2000/svg">
<path d="M29.9155 17.4999C34.4087 11.1907 36.6999 4.67008 33.5137 1.4836C30.3274 -1.70289 23.8073 0.588537 17.4986 5.08206C11.1899 0.588537 4.66973 -1.70289 1.48349 1.4836C-1.70276 4.67008 0.588494 11.1907 5.08169 17.4999C0.588494 23.809 -1.70276 30.3297 1.48349 33.5161C2.50972 34.5424 3.88046 35 5.47723 35C8.84576 35 13.2205 32.9638 17.5077 29.9177C21.7767 32.9638 26.1514 35 29.529 35C31.1258 35 32.4984 34.5406 33.5228 33.5161C36.6999 30.3297 34.4087 23.809 29.9155 17.4999ZM31.4521 3.54533C32.8447 4.93805 31.9041 9.45163 28.0763 15.0808C26.8653 13.5816 25.576 12.1474 24.2138 10.7842C22.8505 9.42373 21.4164 8.13617 19.9174 6.92687C25.5462 3.09871 30.0595 2.15079 31.4521 3.54533ZM26.3009 17.4999C25.011 19.1317 23.6257 20.6857 22.1522 22.1538C20.6842 23.6274 19.1303 25.0128 17.4986 26.3028C15.8669 25.0128 14.313 23.6274 12.845 22.1538C11.3715 20.6857 9.98615 19.1317 8.69629 17.4999C11.2841 14.2386 14.2375 11.285 17.4986 8.69693C19.1303 9.98689 20.6842 11.3723 22.1522 12.8459C23.6257 14.314 25.011 15.868 26.3009 17.4999ZM3.54507 3.54533C3.94608 3.14246 4.60776 2.93465 5.48088 2.93465C7.63543 2.93465 11.075 4.19247 15.0779 6.92687C13.5804 8.13715 12.1469 9.42467 10.7834 10.7842C9.42304 12.1476 8.13557 13.5818 6.92636 15.0808C3.09848 9.45163 2.15245 4.93805 3.54507 3.54533ZM3.54507 31.4544C2.15245 30.0617 3.09848 25.5481 6.92636 19.9189C8.13734 21.4181 9.42664 22.8523 10.7889 24.2155C12.1512 25.5749 13.5835 26.8624 15.0797 28.0729C9.45093 31.901 4.93769 32.8489 3.54507 31.4544ZM31.4521 31.4544C30.0595 32.8489 25.5462 31.9065 19.9174 28.0783C21.4157 26.8663 22.8497 25.5769 24.2138 24.2155C25.5741 22.8522 26.8616 21.418 28.0708 19.9189C31.8987 25.5481 32.8447 30.0617 31.4521 31.4544ZM19.6859 17.4999C19.6859 17.9325 19.5576 18.3554 19.3173 18.7152C19.0769 19.0749 18.7353 19.3553 18.3356 19.5209C17.936 19.6864 17.4962 19.7298 17.0718 19.6453C16.6475 19.5609 16.2578 19.3526 15.9519 19.0467C15.646 18.7407 15.4377 18.351 15.3533 17.9266C15.2689 17.5023 15.3122 17.0625 15.4777 16.6627C15.6433 16.263 15.9236 15.9214 16.2833 15.681C16.6431 15.4406 17.066 15.3123 17.4986 15.3123C18.0787 15.3123 18.6351 15.5428 19.0453 15.9531C19.4555 16.3633 19.6859 16.9197 19.6859 17.4999Z" fill="black"/>
</svg>
